<svg id="visual" viewBox="0 0 960 540" width="960" height="540" xmlns="http://www.w3.org/2000/svg" xmlns:xlink="http://www.w3.org/1999/xlink" version="1.1"><path d="M0 49L22.8 46.5C45.7 44 91.3 39 137 37.3C182.7 35.7 228.3 37.3 274 43.2C319.7 49 365.3 59 411.2 64C457 69 503 69 548.8 67.2C594.7 65.3 640.3 61.7 686 58.5C731.7 55.3 777.3 52.7 823 54.3C868.7 56 914.3 62 937.2 65L960 68L960 0L937.2 0C914.3 0 868.7 0 823 0C777.3 0 731.7 0 686 0C640.3 0 594.7 0 548.8 0C503 0 457 0 411.2 0C365.3 0 319.7 0 274 0C228.3 0 182.7 0 137 0C91.3 0 45.7 0 22.8 0L0 0Z" fill="#EEEEEE" stroke-linecap="round" stroke-linejoin="miter"></path></svg>