<svg id="visual" viewBox="0 0 960 540" width="960" height="540" xmlns="http://www.w3.org/2000/svg" xmlns:xlink="http://www.w3.org/1999/xlink" version="1.1"><path d="M0 481L22.8 482.3C45.7 483.7 91.3 486.3 137 485.2C182.7 484 228.3 479 274 481.7C319.7 484.3 365.3 494.7 411.2 497.8C457 501 503 497 548.8 491.7C594.7 486.3 640.3 479.7 686 478C731.7 476.3 777.3 479.7 823 481.5C868.7 483.3 914.3 483.7 937.2 483.8L960 484L960 541L937.2 541C914.3 541 868.7 541 823 541C777.3 541 731.7 541 686 541C640.3 541 594.7 541 548.8 541C503 541 457 541 411.2 541C365.3 541 319.7 541 274 541C228.3 541 182.7 541 137 541C91.3 541 45.7 541 22.8 541L0 541Z" fill="#EEEEEE" stroke-linecap="round" stroke-linejoin="miter"></path></svg>